<?xml version="1.0" encoding="utf-8"?>
<!-- Generator: Adobe Illustrator 27.2.0, SVG Export Plug-In . SVG Version: 6.00 Build 0)  -->
<svg version="1.1" id="Capa_1" xmlns="http://www.w3.org/2000/svg" xmlns:xlink="http://www.w3.org/1999/xlink" x="0px" y="0px"
	 viewBox="0 0 50 50" style="enable-background:new 0 0 50 50;" xml:space="preserve">
<style type="text/css">
	.st0{fill:url(#SVGID_1_);}
	.st1{fill:url(#SVGID_00000172409186249770181860000012335761187042972059_);}
	.st2{fill:url(#SVGID_00000176747923314373919560000010981802328838671002_);}
	.st3{fill:url(#SVGID_00000156562445677090453940000000387834396255048375_);}
	.st4{fill:url(#SVGID_00000178897614643396841410000018348944396705086091_);}
	.st5{fill:url(#SVGID_00000081618275220986794720000016490940588545101494_);}
	.st6{fill:url(#SVGID_00000000903261989138119650000004175395327690060974_);}
	.st7{fill:url(#SVGID_00000034076638453615729660000003298273817873449097_);}
	.st8{fill:url(#SVGID_00000096748939501878155330000017523436115951675835_);}
	.st9{fill:url(#SVGID_00000052800693670088228130000015388887789228247470_);}
	.st10{fill:url(#SVGID_00000061449558034958735230000016706432497603900315_);}
</style>
<linearGradient id="SVGID_1_" gradientUnits="userSpaceOnUse" x1="55.6344" y1="24.7971" x2="19.3944" y2="25.0371">
	<stop  offset="0" style="stop-color:#00093F"/>
	<stop  offset="0.873" style="stop-color:#4B24C7"/>
</linearGradient>
<rect class="st0" width="50" height="50"/>
<g>
	
		<linearGradient id="SVGID_00000021814011302234839670000017861561318003682945_" gradientUnits="userSpaceOnUse" x1="10.3341" y1="16.0454" x2="23.2121" y2="19.2649" gradientTransform="matrix(1 0 0 -1 0 52)">
		<stop  offset="0" style="stop-color:#753EBA"/>
		<stop  offset="0.3387" style="stop-color:#259ABA"/>
		<stop  offset="0.6882" style="stop-color:#5EE4C6"/>
		<stop  offset="1" style="stop-color:#FFFFD2"/>
	</linearGradient>
	<path style="fill:url(#SVGID_00000021814011302234839670000017861561318003682945_);" d="M22.3,39.3c-1.7,0.8-3.5,1.5-5.2,2.2
		c-1.4,0.5-2.5,0.3-3.3-1.1c-0.5-5.2,0.4-9.4,1.7-13c0.4,2.2,1.3,4.5,2.4,6.4l0,0C19.6,37.1,21.6,39.6,22.3,39.3z"/>
	
		<linearGradient id="SVGID_00000165227685534595304310000011460187783466706829_" gradientUnits="userSpaceOnUse" x1="26.7883" y1="15.0567" x2="26.7883" y2="40.4383" gradientTransform="matrix(1 0 0 -1 0 52)">
		<stop  offset="0" style="stop-color:#753EBA"/>
		<stop  offset="0.3387" style="stop-color:#259ABA"/>
		<stop  offset="0.6882" style="stop-color:#5EE4C6"/>
		<stop  offset="1" style="stop-color:#FFFFD2"/>
	</linearGradient>
	<path style="fill:url(#SVGID_00000165227685534595304310000011460187783466706829_);" d="M30.8,34.7c-1.1,0.7-2.3,1.3-3.4,2l0,0
		c-1.5,0.3-2.7-2.2-3.5-5c-0.4-1.5-0.7-3.1-0.9-4.3c-0.5-4.8-0.1-7.8,0.6-9.5c0.1-0.3,0.2-0.5,0.4-0.8l0,0c0.6-0.9,1.4-1.1,2.4-0.9
		c0.9,0.5,1.7,0.9,2.5,1.4l0,0c1.3,0.9,0.7,2.2,0.4,3.2c-0.7,2.7-0.9,6-0.7,8.7C28.8,32.7,29.6,35.1,30.8,34.7z"/>
	
		<linearGradient id="SVGID_00000122679056339751512950000007944175634547141762_" gradientUnits="userSpaceOnUse" x1="30.3662" y1="29.3856" x2="42.2784" y2="20.21" gradientTransform="matrix(1 0 0 -1 0 52)">
		<stop  offset="0" style="stop-color:#753EBA"/>
		<stop  offset="0.3387" style="stop-color:#259ABA"/>
		<stop  offset="0.6882" style="stop-color:#5EE4C6"/>
		<stop  offset="1" style="stop-color:#FFFFD2"/>
	</linearGradient>
	<path style="fill:url(#SVGID_00000122679056339751512950000007944175634547141762_);" d="M41.6,26.7c-1.2,1.2-3.1,2.8-5.6,4.6l0,0
		c-0.3,0.2-1.2,0.2-1.2-1.5c0-0.3,0-1.1-0.1-2.2c-0.2-2.6-0.6-6.5-1.3-7.2C37.1,22.8,40.1,25.2,41.6,26.7z"/>
	
		<linearGradient id="SVGID_00000012454801568373930150000006234416363855537832_" gradientUnits="userSpaceOnUse" x1="25.7883" y1="12.9782" x2="25.7883" y2="38.3598" gradientTransform="matrix(1 0 0 -1 0 52)">
		<stop  offset="0" style="stop-color:#753EBA"/>
		<stop  offset="0.3387" style="stop-color:#259ABA"/>
		<stop  offset="0.6882" style="stop-color:#5EE4C6"/>
		<stop  offset="0.9892" style="stop-color:#FFFFD2"/>
	</linearGradient>
	<path style="fill:url(#SVGID_00000012454801568373930150000006234416363855537832_);" d="M28.8,35.9c-0.5,0.3-0.9,0.5-1.4,0.8l0,0
		c-1.5,0.3-2.7-2.2-3.5-5c-0.4-1.5-0.7-3.1-0.9-4.3c-0.5-4.8-0.1-7.8,0.6-9.5c0.1-0.3,0.2-0.5,0.4-0.8l0,0c0.6-0.9,1.4-1.3,2.4-0.9
		c0.3,0.1,0.5,0.3,0.8,0.4c-2.8,3.5-2.8,8-2.8,8.8c0,1.5,0.7,1.5,1,1s0.5-1.5,0.7-1.9c0.5-1.1,1-0.8,1,0.2
		C27.1,25.5,25.9,31.9,28.8,35.9z"/>
	
		<linearGradient id="SVGID_00000180343998895802950270000003899718733345953461_" gradientUnits="userSpaceOnUse" x1="42.5728" y1="19.8768" x2="32.9143" y2="27.2817" gradientTransform="matrix(1 0 0 -1 0 52)">
		<stop  offset="0" style="stop-color:#753EBA"/>
		<stop  offset="0.3387" style="stop-color:#259ABA"/>
		<stop  offset="0.6882" style="stop-color:#5EE4C6"/>
		<stop  offset="0.9892" style="stop-color:#FFFFD2"/>
	</linearGradient>
	<path style="fill:url(#SVGID_00000180343998895802950270000003899718733345953461_);" d="M40,28.2c-1.1,0.9-2.4,2-4,3.1l0,0
		c-0.3,0.2-1.2,0.2-1.2-1.5c0-0.3,0-1.1-0.1-2.2c-0.2-2.6-0.6-6.5-1.3-7.2c0.1,0.1,0.2,0.1,0.3,0.2c1.7,1.3,1.7,3.5,1.8,4
		s0.7,0.7,1,1.1c0.6,0.8,0.3,2.5,0.7,2.9C37.6,29.2,38.7,29.2,40,28.2z"/>
	
		<linearGradient id="SVGID_00000010308161669938147110000000705476871475885696_" gradientUnits="userSpaceOnUse" x1="12.0058" y1="20.6969" x2="22.3888" y2="0.8969" gradientTransform="matrix(1 0 0 -1 0 52)">
		<stop  offset="0" style="stop-color:#753EBA"/>
		<stop  offset="0.3387" style="stop-color:#259ABA"/>
		<stop  offset="0.6882" style="stop-color:#5EE4C6"/>
		<stop  offset="1" style="stop-color:#FFFFD2"/>
	</linearGradient>
	<path style="fill:url(#SVGID_00000010308161669938147110000000705476871475885696_);" d="M19.7,40.4c-0.9,0.4-1.7,0.7-2.6,1
		c-1.4,0.5-2.5,0.3-3.3-1.1c-0.2-2.8-0.1-5.4,0.3-7.7c0.1,1.9,0.9,3.9,1.4,4.3c0.6,0.5,0.7-0.6,1.4-0.6
		C17.9,36.4,17.9,39.5,19.7,40.4z"/>
	
		<linearGradient id="SVGID_00000163774741494555959090000004687137417271648645_" gradientUnits="userSpaceOnUse" x1="21.05" y1="8.4055" x2="21.05" y2="35.8217" gradientTransform="matrix(1 0 0 -1 0 52)">
		<stop  offset="0" style="stop-color:#FF85FF"/>
		<stop  offset="0.4926" style="stop-color:#9400B7"/>
		<stop  offset="1" style="stop-color:#5A00A1"/>
	</linearGradient>
	<path style="fill:url(#SVGID_00000163774741494555959090000004687137417271648645_);" d="M23,27.4c0.1,1.2,0.4,2.8,0.9,4.3
		c0,2.6-0.4,7-1.5,7.6l0,0l0,0c-0.7,0.3-2.7-2.2-4.4-5.5l0,0c0-5.5,4.7-14.8,6.1-16.7c-0.1,0.2-0.3,0.5-0.4,0.8
		C22.9,19.5,22.4,22.5,23,27.4z"/>
	
		<linearGradient id="SVGID_00000071533257071443766330000005202525184562438065_" gradientUnits="userSpaceOnUse" x1="31.6" y1="15.805" x2="31.6" y2="34.0416" gradientTransform="matrix(1 0 0 -1 0 52)">
		<stop  offset="0" style="stop-color:#FF85FF"/>
		<stop  offset="0.4926" style="stop-color:#9400B7"/>
		<stop  offset="1" style="stop-color:#5A00A1"/>
	</linearGradient>
	<path style="fill:url(#SVGID_00000071533257071443766330000005202525184562438065_);" d="M34.6,27.6c-0.2,0.6-1.8,5.4-3.3,6.8
		c-0.2,0.1-0.4,0.2-0.5,0.3c-1.2,0.4-2-2-2.2-5.2c0.6-1.6,3.4-9.5,4.5-9.3c0.1,0,0.1,0.1,0.2,0.1l0,0C34,21.1,34.5,25,34.6,27.6z"/>
	
		<linearGradient id="SVGID_00000172401222001295622350000016192816843869538441_" gradientUnits="userSpaceOnUse" x1="25.2362" y1="42.4414" x2="10.8287" y2="19.7436" gradientTransform="matrix(1 0 0 -1 0 52)">
		<stop  offset="0" style="stop-color:#FF85FF"/>
		<stop  offset="0.4926" style="stop-color:#9400B7"/>
		<stop  offset="1" style="stop-color:#5A00A1"/>
	</linearGradient>
	<path style="fill:url(#SVGID_00000172401222001295622350000016192816843869538441_);" d="M25.8,13c-0.4-0.1-1.7,1.3-2,1.5
		c-1.2,1.1-2.3,2.4-3.3,3.8c-2.1,2.8-3.7,5.9-4.9,9.1l0,0c-0.5,1.2-0.9,2.6-1.2,4c-0.6,2.7-0.9,5.7-0.6,9c-0.2-0.3-0.3-0.6-0.4-1
		c-1.4-4.6-2.1-9.2-1.9-14c0.1-3.3,0.9-7.1,2.2-10.2c1.3-2.8,3.3-5.3,6-6.9c0,0,0.3,0.7,1.1,1.6C21.7,11,23.4,12.4,25.8,13z"/>
	
		<linearGradient id="SVGID_00000069390379098866738170000007461465768377678224_" gradientUnits="userSpaceOnUse" x1="9.79" y1="23.1695" x2="24.0364" y2="38.7841" gradientTransform="matrix(1 0 0 -1 0 52)">
		<stop  offset="0" style="stop-color:#753EBA"/>
		<stop  offset="0.3387" style="stop-color:#259ABA"/>
		<stop  offset="0.6882" style="stop-color:#5EE4C6"/>
		<stop  offset="0.9944" style="stop-color:#FFFFD2"/>
	</linearGradient>
	<path style="fill:url(#SVGID_00000069390379098866738170000007461465768377678224_);" d="M25.8,13c-0.4-0.1-1.7,1.3-2,1.5
		c-1.2,1.1-2.3,2.4-3.3,3.8c-2.1,2.8-3.7,5.9-4.9,9.1l0,0c-0.5,1.2-0.9,2.6-1.2,4c-1.9,0.1-2.9-2.8-1.1-4c1.9-1.2,1.3-2.1,0.1-4.6
		s0.5-3.7,2.5-3.9c1.9-0.3,3.3-1.5,2.1-4.4s2.9-4.5,2.9-4.5C21.7,11,23.4,12.4,25.8,13z"/>
</g>
</svg>
