<?xml version="1.0" encoding="utf-8"?>
<!-- Generator: Adobe Illustrator 27.2.0, SVG Export Plug-In . SVG Version: 6.00 Build 0)  -->
<svg version="1.1" id="Layer_1" xmlns="http://www.w3.org/2000/svg" xmlns:xlink="http://www.w3.org/1999/xlink" x="0px" y="0px"
	 viewBox="0 0 489.4 150.2" style="enable-background:new 0 0 489.4 150.2;" xml:space="preserve">
<style type="text/css">
	.st0{fill:url(#SVGID_1_);}
	.st1{fill:url(#SVGID_00000105393233327261345620000012814374075046766228_);}
	.st2{fill:url(#SVGID_00000102519932043289523360000013655682694614226326_);}
	.st3{fill:url(#SVGID_00000143600235723725598730000000113338235573488296_);}
	.st4{fill:url(#SVGID_00000102515528533147460900000011603293257303011742_);}
	.st5{fill:url(#SVGID_00000106840006636715215260000005851038044373206688_);}
	.st6{fill:url(#SVGID_00000147208620441355044390000018369613280019047847_);}
	.st7{fill:url(#SVGID_00000101790043253151787750000016352629585724755858_);}
	.st8{fill:url(#SVGID_00000112621480446607560890000010460666200731307198_);}
	.st9{fill:url(#SVGID_00000088101079354919178600000005975872743591771316_);}
	.st10{enable-background:new    ;}
	.st11{fill:#5EE4C6;}
	.st12{fill:#FFFFFF;}
</style>
<g>
	
		<linearGradient id="SVGID_1_" gradientUnits="userSpaceOnUse" x1="-4.3626" y1="38.5106" x2="48.5274" y2="51.7306" gradientTransform="matrix(1 0 0 -1 0 152)">
		<stop  offset="0" style="stop-color:#753EBA"/>
		<stop  offset="0.34" style="stop-color:#259ABA"/>
		<stop  offset="0.69" style="stop-color:#5EE4C6"/>
		<stop  offset="1" style="stop-color:#FFFFD2"/>
	</linearGradient>
	<path class="st0" d="M44.8,127.3c-7,3.3-14.2,6.3-21.4,8.9c-5.6,2.1-10.4,1.4-13.6-4.5c-1.8-21.2,1.6-38.8,7.1-53.5
		c1.7,8.9,5.4,18.3,9.7,26.5l0,0C33.6,118.4,41.9,128.5,44.8,127.3L44.8,127.3z"/>
	
		<linearGradient id="SVGID_00000152261979164983494380000006439238517315774634_" gradientUnits="userSpaceOnUse" x1="63.1927" y1="34.28" x2="63.1927" y2="138.53" gradientTransform="matrix(1 0 0 -1 0 152)">
		<stop  offset="0" style="stop-color:#753EBA"/>
		<stop  offset="0.34" style="stop-color:#259ABA"/>
		<stop  offset="0.69" style="stop-color:#5EE4C6"/>
		<stop  offset="1" style="stop-color:#FFFFD2"/>
	</linearGradient>
	<path style="fill:url(#SVGID_00000152261979164983494380000006439238517315774634_);" d="M79.8,108.5c-4.5,2.8-9.2,5.5-14.1,8.2h0
		c-6.2,1.4-11.2-9-14.5-20.6c-1.8-6.2-3-12.7-3.5-17.8c-2.2-19.9-0.3-32.2,2.4-39c0.5-1.2,1-2.2,1.6-3.1c0,0,0,0,0-0.1
		c2.4-3.8,5.5-4.7,9.8-3.7c3.6,1.9,7.1,3.9,10.4,5.8c0,0,0,0,0.1,0c5.4,3.8,2.7,9.1,1.7,13.3c-2.9,11.2-3.7,24.6-2.9,35.7
		C71.7,100.3,75,110,79.8,108.5L79.8,108.5z"/>
	
		<linearGradient id="SVGID_00000085942355447579402020000000824508504793113512_" gradientUnits="userSpaceOnUse" x1="78.0314" y1="93.2418" x2="126.9514" y2="55.5518" gradientTransform="matrix(1 0 0 -1 0 152)">
		<stop  offset="0" style="stop-color:#753EBA"/>
		<stop  offset="0.34" style="stop-color:#259ABA"/>
		<stop  offset="0.69" style="stop-color:#5EE4C6"/>
		<stop  offset="1" style="stop-color:#FFFFD2"/>
	</linearGradient>
	<path style="fill:url(#SVGID_00000085942355447579402020000000824508504793113512_);" d="M124.3,75.7c-4.7,4.8-12.8,11.4-23.1,18.7
		c0,0-0.1,0-0.1,0.1c-1.2,0.7-4.9,0.7-5.1-6c0-1.1-0.2-4.6-0.5-9.2c-0.8-10.6-2.5-26.5-5.3-29.7C105.7,59.7,117.9,69.3,124.3,75.7z"
		/>
	
		<linearGradient id="SVGID_00000066490062476402015260000016743457422089560219_" gradientUnits="userSpaceOnUse" x1="59.0077" y1="25.75" x2="59.0077" y2="129.99" gradientTransform="matrix(1 0 0 -1 0 152)">
		<stop  offset="0" style="stop-color:#753EBA"/>
		<stop  offset="0.34" style="stop-color:#259ABA"/>
		<stop  offset="0.69" style="stop-color:#5EE4C6"/>
		<stop  offset="0.99" style="stop-color:#FFFFD2"/>
	</linearGradient>
	<path style="fill:url(#SVGID_00000066490062476402015260000016743457422089560219_);" d="M71.4,113.4c-1.9,1.1-3.8,2.2-5.8,3.2h0
		c-6.2,1.4-11.2-9-14.5-20.6c-1.8-6.2-3-12.7-3.5-17.8c-2.2-19.9-0.3-32.2,2.4-39c0.5-1.2,1-2.2,1.6-3.1c0,0,0,0,0-0.1
		c2.4-3.8,5.7-5.3,9.8-3.7c1.2,0.4,2.2,1.2,3.3,1.8C53.2,48.4,53.2,66.9,53.2,70.5c0,6.3,2.9,6.2,4.1,3.9c1.2-2.3,2-6.3,2.8-7.8
		c2.2-4.5,4.2-3.1,4.2,0.6C64.4,70.9,59.6,96.9,71.4,113.4L71.4,113.4z"/>
	
		<linearGradient id="SVGID_00000120517240214369017090000013226282097436170647_" gradientUnits="userSpaceOnUse" x1="128.1644" y1="54.1757" x2="88.4944" y2="84.5957" gradientTransform="matrix(1 0 0 -1 0 152)">
		<stop  offset="0" style="stop-color:#753EBA"/>
		<stop  offset="0.34" style="stop-color:#259ABA"/>
		<stop  offset="0.69" style="stop-color:#5EE4C6"/>
		<stop  offset="0.99" style="stop-color:#FFFFD2"/>
	</linearGradient>
	<path style="fill:url(#SVGID_00000120517240214369017090000013226282097436170647_);" d="M117.6,81.7c-4.4,3.8-10,8.1-16.4,12.6
		c0,0-0.1,0-0.1,0.1c-1.2,0.7-4.9,0.7-5.1-6c0-1.1-0.2-4.6-0.5-9.2c-0.8-10.6-2.5-26.5-5.3-29.7c0.3,0.2,0.7,0.5,1.1,0.7
		c7,5.3,7.1,14.5,7.5,16.5c0.4,2.2,2.8,2.8,4,4.4c2.4,3.3,1.3,10.1,2.7,11.8C107.8,85.8,112.2,86,117.6,81.7z"/>
	
		<linearGradient id="SVGID_00000152242552131718492670000002909518825457593474_" gradientUnits="userSpaceOnUse" x1="2.3418" y1="57.3409" x2="44.9818" y2="-23.979" gradientTransform="matrix(1 0 0 -1 0 152)">
		<stop  offset="0" style="stop-color:#753EBA"/>
		<stop  offset="0.34" style="stop-color:#259ABA"/>
		<stop  offset="0.69" style="stop-color:#5EE4C6"/>
		<stop  offset="1" style="stop-color:#FFFFD2"/>
	</linearGradient>
	<path style="fill:url(#SVGID_00000152242552131718492670000002909518825457593474_);" d="M34,132.1c-3.5,1.5-7.1,2.9-10.6,4.2
		c-5.6,2.1-10.4,1.4-13.6-4.5c-1-11.6-0.4-22.1,1.2-31.6c0.5,7.8,3.9,15.8,5.9,17.5c2.5,2,2.7-2.3,5.6-2.3
		C26.6,115.4,26.6,128.2,34,132.1L34,132.1z"/>
	
		<linearGradient id="SVGID_00000179615503951745553120000011853376279530102427_" gradientUnits="userSpaceOnUse" x1="39.09" y1="6.97" x2="39.09" y2="119.57" gradientTransform="matrix(1 0 0 -1 0 152)">
		<stop  offset="0" style="stop-color:#FF85FF"/>
		<stop  offset="0.49" style="stop-color:#9400B7"/>
		<stop  offset="1" style="stop-color:#5A00A1"/>
	</linearGradient>
	<path style="fill:url(#SVGID_00000179615503951745553120000011853376279530102427_);" d="M47.6,78.3c0.6,5.1,1.8,11.6,3.5,17.8
		c0,10.5-1.7,28.7-6.2,31.1c0,0-0.1,0.1-0.1,0.1c0,0,0,0,0,0c-2.9,1.2-11.2-8.9-18.2-22.5l0,0c0-22.7,19.5-61,25-68.7
		c-0.6,0.9-1.1,1.9-1.6,3.1C47.3,46.1,45.4,58.5,47.6,78.3L47.6,78.3z"/>
	
		<linearGradient id="SVGID_00000023996391460620938470000010157332457342188970_" gradientUnits="userSpaceOnUse" x1="83.14" y1="37.36" x2="83.14" y2="112.26" gradientTransform="matrix(1 0 0 -1 0 152)">
		<stop  offset="0" style="stop-color:#FF85FF"/>
		<stop  offset="0.49" style="stop-color:#9400B7"/>
		<stop  offset="1" style="stop-color:#5A00A1"/>
	</linearGradient>
	<path style="fill:url(#SVGID_00000023996391460620938470000010157332457342188970_);" d="M95.5,79.2c-0.8,2.3-7.3,22.3-13.6,27.9
		c-0.7,0.4-1.4,0.9-2.2,1.3c-4.8,1.5-8.1-8.2-9-21.3c2.6-6.6,14.1-39.2,18.7-38.2c0.3,0.2,0.6,0.3,0.8,0.5h0
		C93,52.7,94.7,68.7,95.5,79.2L95.5,79.2z"/>
	
		<linearGradient id="SVGID_00000095312685619557581200000012137025362023366794_" gradientUnits="userSpaceOnUse" x1="56.655" y1="146.9032" x2="-2.5251" y2="53.6832" gradientTransform="matrix(1 0 0 -1 0 152)">
		<stop  offset="0" style="stop-color:#FF85FF"/>
		<stop  offset="0.49" style="stop-color:#9400B7"/>
		<stop  offset="1" style="stop-color:#5A00A1"/>
	</linearGradient>
	<path style="fill:url(#SVGID_00000095312685619557581200000012137025362023366794_);" d="M59,19.2c-1.8-0.4-7.2,5.2-8.3,6.2
		c-5.1,4.6-9.6,10-13.7,15.5C28.6,52.3,21.9,65,16.9,78.3l0,0C15,83.4,13.3,88.9,12,94.7c-2.4,10.9-3.5,23.2-2.3,37.1
		c-0.7-1.2-1.2-2.6-1.7-4.2c-5.8-19-8.5-37.9-7.9-57.6c0.4-13.6,3.5-29.2,9.2-41.7C14.5,16.6,22.9,6.5,34,0c0,0,1.4,2.9,4.5,6.5
		C42.5,11.1,49.2,16.8,59,19.2L59,19.2z"/>
	
		<linearGradient id="SVGID_00000055669996899232699780000009434014686490223764_" gradientUnits="userSpaceOnUse" x1="-7.0455" y1="68.045" x2="51.4745" y2="132.175" gradientTransform="matrix(1 0 0 -1 0 152)">
		<stop  offset="0" style="stop-color:#753EBA"/>
		<stop  offset="0.34" style="stop-color:#259ABA"/>
		<stop  offset="0.69" style="stop-color:#5EE4C6"/>
		<stop  offset="0.99" style="stop-color:#FFFFD2"/>
	</linearGradient>
	<path style="fill:url(#SVGID_00000055669996899232699780000009434014686490223764_);" d="M59,19.2c-1.8-0.4-7.2,5.2-8.3,6.2
		c-5.1,4.6-9.6,10-13.7,15.5C28.6,52.3,21.9,65,16.9,78.3l0,0C15,83.4,13.3,88.9,12,94.7C4.4,95,0.1,83.1,7.7,78.3
		c7.7-4.8,5.2-8.7,0.3-19.1s2.1-15,10.1-16.2s13.5-6.1,8.4-18.1c-5-12,12-18.4,12-18.4C42.5,11,49.2,16.8,59,19.2L59,19.2z"/>
</g>
<g class="st10">
	<path class="st11" d="M152.3,30.7V16H194v14.7h-10.7v45.7h-17V30.7H152.3z"/>
	<path class="st11" d="M237.4,36.9l2.5-20.9h17l-7.4,60.4h-17.3l-7.4-23.5L215,76.4h-17.5L195,16h16.9l0.9,21.4l8.9-21.4h9.1
		L237.4,36.9z"/>
	<path class="st11" d="M259.6,16h17.3v60.4h-17.3V16z"/>
	<path class="st11" d="M316.6,40.9c3.7,1.7,6.4,3.9,8.3,6.6c1.9,2.8,2.8,6,2.8,9.6c0,3.5-1,6.8-3,9.9c-2,3.1-4.8,5.5-8.5,7.1
		c-3.4,1.6-7.2,2.3-11.4,2.3c-5.1,0-9.5-0.8-13.1-2.3c-3.9-1.7-6.9-4.2-9.1-7.6c-1.7-2.6-2.8-5.5-3.3-8.6L295,57
		c0.2,0.5,0.4,0.9,0.7,1.2c0.6,0.9,1.6,1.7,3.1,2.3c1.7,0.7,3.6,1.1,5.8,1.1c2,0,3.7-0.3,5.1-0.9c1.9-0.7,2.8-1.7,2.8-3
		c0-1.2-1-2.3-3-3.1c-1.2-0.4-3.9-1.2-8.3-2.2c-1.5-0.3-2.7-0.7-3.7-0.9c-3.4-1-6.2-2.2-8.4-3.4c-2.4-1.5-4.2-3.3-5.6-5.3
		c-1.6-2.6-2.4-5.5-2.4-8.6c0-3.4,0.9-6.6,2.8-9.5c2-2.9,4.7-5.1,8.3-6.6c3.3-1.4,7-2.1,10.9-2.1c4.3,0,8.1,0.7,11.5,2.2
		c3.7,1.5,6.5,3.8,8.5,6.9c1.7,2.6,2.8,5.6,3.1,8.9l-15.5,0.5c-0.3-1-0.8-1.8-1.5-2.3c-1.2-0.9-3.1-1.4-5.9-1.4
		c-2.9,0-4.9,0.4-6,1.2c-2.6,2.1-0.6,3.8,5.9,5.1c0.2,0.1,0.4,0.1,0.7,0.2c0.4,0.1,0.7,0.1,0.8,0.2c3.3,0.7,6.9,1.7,10.7,2.9
		C315.9,40.5,316.3,40.7,316.6,40.9z"/>
	<path class="st11" d="M327.7,30.7V16h41.8v14.7h-10.7v45.7h-17V30.7H327.7z"/>
	<path class="st11" d="M371.3,16h31.6v14.8h-16v6.9h13.9v12.9h-13.9v12.2h16v13.6h-31.6V16z"/>
	<path class="st11" d="M444.8,52.7c-0.5,0.5-1,0.9-1.6,1.3l11,22.4h-18.7l-8.6-17.6h-3.4v17.6h-16.9V16h22.4
		c6.2,0,11.4,2.1,15.8,6.2s6.6,9.1,6.6,14.9v0.7C451.5,43.6,449.3,48.5,444.8,52.7z M434.5,37.7v-0.7c0-1.4-0.5-2.7-1.6-3.7
		c-1.1-1-2.3-1.5-3.8-1.5h-5.5v11h5.5c1.5,0,2.8-0.5,3.8-1.5C434,40.4,434.5,39.2,434.5,37.7z"/>
</g>
<g class="st10">
	<path class="st12" d="M178.6,134.5c-0.4,0-0.7-0.1-1-0.4c-0.2-0.2-0.4-0.6-0.4-1V94.3c0-0.4,0.1-0.8,0.4-1c0.2-0.2,0.6-0.4,1-0.4
		h22.9c0.4,0,0.8,0.1,1,0.4c0.2,0.2,0.4,0.6,0.4,1v0.9c0,0.4-0.1,0.7-0.4,1c-0.2,0.2-0.6,0.4-1,0.4H181v16h19.3c0.4,0,0.8,0.1,1,0.4
		c0.2,0.2,0.4,0.6,0.4,1v0.9c0,0.4-0.1,0.7-0.4,1c-0.2,0.2-0.6,0.4-1,0.4H181v17.2c0,0.4-0.1,0.7-0.4,1c-0.2,0.2-0.6,0.4-1,0.4
		H178.6z"/>
	<path class="st12" d="M259.9,134.5c-0.4,0-0.7-0.1-1-0.4s-0.4-0.6-0.4-1v-39c0-0.4,0.1-0.7,0.4-1s0.6-0.4,1-0.4h1.1
		c0.4,0,0.7,0.1,1,0.4c0.2,0.2,0.4,0.6,0.4,1v39c0,0.4-0.1,0.7-0.4,1c-0.2,0.2-0.6,0.4-1,0.4H259.9z"/>
	<path class="st12" d="M322.4,134.5c-0.4,0-0.7-0.1-1-0.4c-0.2-0.2-0.4-0.6-0.4-1v-39c0-0.4,0.1-0.7,0.4-1c0.2-0.2,0.6-0.4,1-0.4
		h1.1c0.4,0,0.7,0.1,1,0.4s0.4,0.6,0.4,1V131h20.5c0.4,0,0.8,0.1,1,0.4s0.4,0.6,0.4,1v0.9c0,0.4-0.1,0.7-0.4,1s-0.6,0.4-1,0.4H322.4
		z"/>
	<path class="st12" d="M402.5,134.5c-0.4,0-0.7-0.1-1-0.4c-0.3-0.2-0.4-0.6-0.4-1V94.3c0-0.4,0.1-0.8,0.4-1c0.3-0.2,0.6-0.4,1-0.4
		h1.5c0.4,0,0.7,0.1,0.9,0.3c0.2,0.2,0.3,0.4,0.4,0.5l13.5,26.2l13.5-26.2c0.1-0.1,0.2-0.3,0.4-0.5c0.2-0.2,0.5-0.3,0.9-0.3h1.4
		c0.4,0,0.8,0.1,1,0.4c0.2,0.2,0.4,0.6,0.4,1v38.9c0,0.4-0.1,0.7-0.4,1c-0.2,0.2-0.6,0.4-1,0.4h-1.1c-0.4,0-0.7-0.1-1-0.4
		s-0.4-0.6-0.4-1V101l-11.3,22.3c-0.2,0.4-0.4,0.7-0.7,0.9c-0.3,0.2-0.7,0.3-1.2,0.3H418c-0.5,0-0.9-0.1-1.1-0.3
		c-0.3-0.2-0.5-0.5-0.7-0.9L404.9,101v32.2c0,0.4-0.1,0.7-0.4,1c-0.2,0.2-0.6,0.4-1,0.4H402.5z"/>
</g>
</svg>
