<?xml version="1.0" encoding="UTF-8"?>
<svg id="Layer_1" data-name="Layer 1" xmlns="http://www.w3.org/2000/svg" xmlns:xlink="http://www.w3.org/1999/xlink" viewBox="0 0 489.37 150.22">
  <defs>
    <style>
      .cls-1 {
        fill: url(#linear-gradient-2);
      }

      .cls-2 {
        fill: url(#linear-gradient-6);
      }

      .cls-3 {
        fill: #5ee4c6;
        font-family: BOHULIRRegular, BOHULIR;
        font-size: 86.28px;
      }

      .cls-4 {
        fill: url(#Degradado_sin_nombre_223);
      }

      .cls-5 {
        fill: url(#Degradado_sin_nombre_213);
      }

      .cls-6 {
        fill: url(#linear-gradient-5);
      }

      .cls-7 {
        fill: url(#linear-gradient-3);
      }

      .cls-8 {
        fill: url(#linear-gradient);
      }

      .cls-9 {
        fill: url(#Degradado_sin_nombre_220);
      }

      .cls-10 {
        fill: url(#Degradado_sin_nombre_207);
      }

      .cls-11 {
        fill: url(#linear-gradient-4);
      }

      .cls-12 {
        fill: #ffffd2;
        font-family: Rubik-Light, Rubik;
        font-size: 59.39px;
        font-variation-settings: 'wght' 300;
        font-weight: 300;
        letter-spacing: .8em;
      }
    </style>
    <linearGradient id="linear-gradient" x1="-4.36" y1="113.5" x2="48.53" y2="100.28" gradientUnits="userSpaceOnUse">
      <stop offset="0" stop-color="#753eba"/>
      <stop offset=".34" stop-color="#259aba"/>
      <stop offset=".69" stop-color="#5ee4c6"/>
      <stop offset="1" stop-color="#ffffd2"/>
    </linearGradient>
    <linearGradient id="linear-gradient-2" x1="63.19" y1="117.72" x2="63.19" y2="13.47" xlink:href="#linear-gradient"/>
    <linearGradient id="linear-gradient-3" x1="78.03" y1="58.76" x2="126.95" y2="96.45" xlink:href="#linear-gradient"/>
    <linearGradient id="Degradado_sin_nombre_220" data-name="Degradado sin nombre 220" x1="59" y1="126.25" x2="59" y2="22.01" gradientUnits="userSpaceOnUse">
      <stop offset="0" stop-color="#753eba"/>
      <stop offset=".34" stop-color="#259aba"/>
      <stop offset=".69" stop-color="#5ee4c6"/>
      <stop offset=".99" stop-color="#ffffd2"/>
    </linearGradient>
    <linearGradient id="linear-gradient-4" x1="128.16" y1="97.83" x2="88.49" y2="67.41" gradientUnits="userSpaceOnUse">
      <stop offset="0" stop-color="#753eba"/>
      <stop offset=".34" stop-color="#259aba"/>
      <stop offset=".69" stop-color="#5ee4c6"/>
      <stop offset=".99" stop-color="#ffffd2"/>
    </linearGradient>
    <linearGradient id="linear-gradient-5" x1="2.34" y1="94.66" x2="44.98" y2="175.98" xlink:href="#linear-gradient"/>
    <linearGradient id="Degradado_sin_nombre_213" data-name="Degradado sin nombre 213" x1="39.09" y1="145.03" x2="39.09" y2="32.43" gradientUnits="userSpaceOnUse">
      <stop offset="0" stop-color="#ff85ff"/>
      <stop offset=".49" stop-color="#9400b7"/>
      <stop offset="1" stop-color="#5a00a1"/>
    </linearGradient>
    <linearGradient id="Degradado_sin_nombre_207" data-name="Degradado sin nombre 207" x1="83.14" y1="114.64" x2="83.14" y2="39.74" gradientUnits="userSpaceOnUse">
      <stop offset="0" stop-color="#ff85ff"/>
      <stop offset=".49" stop-color="#9400b7"/>
      <stop offset="1" stop-color="#5a00a1"/>
    </linearGradient>
    <linearGradient id="linear-gradient-6" x1="56.66" y1="5.1" x2="-2.52" y2="98.32" gradientUnits="userSpaceOnUse">
      <stop offset="0" stop-color="#ff85ff"/>
      <stop offset=".49" stop-color="#9400b7"/>
      <stop offset="1" stop-color="#5a00a1"/>
    </linearGradient>
    <linearGradient id="Degradado_sin_nombre_223" data-name="Degradado sin nombre 223" x1="-7.04" y1="83.96" x2="51.48" y2="19.83" gradientUnits="userSpaceOnUse">
      <stop offset="0" stop-color="#753eba"/>
      <stop offset=".34" stop-color="#259aba"/>
      <stop offset=".69" stop-color="#5ee4c6"/>
      <stop offset=".99" stop-color="#ffffd2"/>
    </linearGradient>
  </defs>
  <g>
    <path class="cls-8" d="m44.8,127.31c-7.04,3.3-14.21,6.32-21.39,8.95-5.62,2.05-10.45,1.39-13.64-4.46-1.85-21.22,1.65-38.75,7.14-53.46,1.72,8.89,5.43,18.3,9.66,26.47h0c7,13.57,15.36,23.73,18.23,22.49Z"/>
    <path class="cls-1" d="m79.77,108.46c-4.52,2.77-9.25,5.52-14.13,8.23h-.03c-6.15,1.42-11.24-9.04-14.49-20.56-1.76-6.19-2.97-12.68-3.54-17.8-2.19-19.87-.34-32.24,2.44-39.03.49-1.2,1.01-2.24,1.58-3.12.01-.03.03-.04.04-.07,2.42-3.75,5.55-4.71,9.81-3.73,3.57,1.9,7.05,3.86,10.45,5.82.03.01.04.03.07.04,5.43,3.77,2.73,9.13,1.65,13.3-2.9,11.17-3.71,24.62-2.88,35.66.97,13.07,4.23,22.76,9.02,21.26Z"/>
    <path class="cls-7" d="m124.26,75.67c-4.74,4.77-12.79,11.39-23.06,18.69-.03.01-.05.04-.08.05-1.22.73-4.94.66-5.05-5.98-.01-1.05-.19-4.61-.54-9.18-.78-10.56-2.49-26.54-5.29-29.74,15.49,10.14,27.7,19.81,34.02,26.16Z"/>
    <path class="cls-9" d="m71.39,113.43c-1.89,1.09-3.81,2.17-5.75,3.25h-.03c-6.15,1.42-11.24-9.04-14.49-20.56-1.76-6.19-2.97-12.68-3.54-17.8-2.19-19.87-.34-32.24,2.44-39.03.49-1.2,1.01-2.24,1.58-3.12.01-.03.03-.04.04-.07,2.42-3.75,5.71-5.26,9.81-3.73,1.16.43,2.17,1.17,3.26,1.76-11.49,14.26-11.48,32.81-11.49,36.35-.01,6.27,2.89,6.2,4.12,3.93,1.24-2.26,2.04-6.28,2.78-7.82,2.19-4.54,4.23-3.09,4.23.62s-4.74,29.66,7.05,46.22Z"/>
    <path class="cls-11" d="m117.58,81.74c-4.42,3.75-9.97,8.05-16.38,12.61-.03.01-.05.04-.08.05-1.22.73-4.94.66-5.05-5.98-.01-1.05-.19-4.61-.54-9.18-.78-10.56-2.49-26.54-5.29-29.74.35.23.7.46,1.05.7,7.01,5.32,7.14,14.49,7.54,16.52.41,2.2,2.8,2.78,3.98,4.39,2.43,3.3,1.35,10.1,2.74,11.82,2.28,2.82,6.62,3.07,12.03-1.19Z"/>
    <path class="cls-6" d="m34.02,132.09c-3.53,1.47-7.06,2.88-10.62,4.17-5.62,2.05-10.45,1.39-13.64-4.46-1.01-11.59-.43-22.07,1.22-31.59.51,7.78,3.85,15.84,5.93,17.46,2.53,1.96,2.73-2.27,5.62-2.27,4.04,0,4.04,12.78,11.49,16.68Z"/>
    <path class="cls-5" d="m47.58,78.33c.57,5.12,1.78,11.62,3.54,17.8,0,10.49-1.7,28.7-6.17,31.1-.04.03-.07.05-.11.07-.01,0-.03.01-.04.01-2.88,1.24-11.24-8.91-18.23-22.47h0c.01-22.74,19.46-60.97,25.04-68.67-.57.88-1.09,1.92-1.58,3.12-2.78,6.79-4.63,19.17-2.44,39.03Z"/>
    <path class="cls-10" d="m95.53,79.25c-.77,2.34-7.32,22.27-13.59,27.88-.72.45-1.45.89-2.17,1.34-4.79,1.5-8.05-8.18-9.02-21.26,2.63-6.62,14.06-39.15,18.65-38.25.28.18.55.35.82.54h.01c2.81,3.21,4.51,19.19,5.29,29.75Z"/>
    <path class="cls-2" d="m59,19.17c-1.8-.44-7.19,5.2-8.26,6.18-5.11,4.64-9.57,9.99-13.67,15.53-8.47,11.43-15.2,24.13-20.17,37.46h0c-1.91,5.11-3.57,10.56-4.86,16.38-2.42,10.95-3.49,23.24-2.29,37.09-.66-1.19-1.24-2.58-1.74-4.21C2.23,108.64-.51,89.65.08,69.98c.41-13.62,3.52-29.15,9.16-41.72C14.47,16.6,22.93,6.49,34.02,0c0,0,1.43,2.88,4.53,6.48,3.95,4.57,10.6,10.3,20.45,12.7Z"/>
    <path class="cls-4" d="m59,19.17c-1.8-.44-7.19,5.2-8.26,6.18-5.11,4.64-9.57,9.99-13.67,15.53-8.47,11.43-15.2,24.13-20.17,37.46h0c-1.91,5.11-3.57,10.56-4.86,16.38-7.62.25-11.97-11.57-4.32-16.37,7.65-4.79,5.2-8.67.31-19.08s2.14-15,10.1-16.22c7.96-1.22,13.47-6.12,8.43-18.15-5.04-12.02,11.99-18.43,11.99-18.43,3.95,4.57,10.6,10.3,20.45,12.7Z"/>
  </g>
  <text class="cls-3" transform="translate(152.88 76.4)"><tspan x="0" y="0">TWISTER</tspan></text>
  <text class="cls-12" transform="translate(171.69 134.54)"><tspan x="0" y="0">FILM</tspan></text>
</svg>